<?xml version="1.0" encoding="iso-8859-1"?>
<!-- Generator: Adobe Illustrator 19.0.0, SVG Export Plug-In . SVG Version: 6.00 Build 0)  -->
<svg version="1.1" id="Capa_1" xmlns="http://www.w3.org/2000/svg" xmlns:xlink="http://www.w3.org/1999/xlink" x="0px" y="0px"
	 viewBox="0 0 480 480" style="enable-background:new 0 0 480 480;" xml:space="preserve">
<polygon style="fill:#CCCCCC;" points="168,280 200,248 200,120 280,120 280,248 312,280 312,424 168,424 "/>
<polygon style="fill:#999999;" points="312,280 280,248 280,120 240,120 240,424 312,424 "/>
<polygon style="fill:#E7B900;" points="184,424 152,424 136,448 200,448 "/>
<rect x="136" y="448" style="fill:#FFD422;" width="64" height="24"/>
<polygon style="fill:#E7B900;" points="328,424 296,424 280,448 344,448 "/>
<rect x="280" y="448" style="fill:#FFD422;" width="64" height="24"/>
<path style="fill:#5AAAE7;" d="M240,96c-32,0-40,24-40,24v32c0,0,8-24,40-24s40,24,40,24v-32C280,120,272,96,240,96z"/>
<path style="fill:#EBE5DD;" d="M11.926,355.485C9.395,358.396,8,362.125,8,365.983V376h117.138l13.042-40.717
	C141.6,321.6,153.895,312,168,312v-32V176L11.926,355.485z"/>
<path style="fill:#F40E34;" d="M274.733,29.466C268.155,16.31,254.709,8,240,8s-28.155,8.31-34.733,21.466L192,56h96L274.733,29.466
	z"/>
<path style="fill:#A6001E;" d="M288,56h-24l-13.28-26.56C246,20,237.76,13.04,228,9.92C231.84,8.64,235.84,8,240,8
	c14.72,0,28.16,8.32,34.72,21.44L288,56z"/>
<path style="fill:#5AAAE7;" d="M125.138,376H8v32c0,8.836,7.164,16,16,16h96v-31.96L125.138,376z"/>
<g>
	<path style="fill:#EBE5DD;" d="M138.179,335.283L125.138,376H128h-2.862L120,392.04V424h96v-31.96l-18.179-56.756
		C194.4,321.6,182.105,312,168,312S141.6,321.6,138.179,335.283z"/>
	<path style="fill:#EBE5DD;" d="M312,141.771c0-24.839-5.783-49.337-16.892-71.554L288,56h-96l-7.108,14.217
		C173.783,92.434,168,116.932,168,141.771V176v104l32-32v-96v-32c0,0,8-24,40-24s40,24,40,24v32v96l32,32V176V141.771z"/>
	<path style="fill:#EBE5DD;" d="M468.074,355.485L312,176v104v32c14.105,0,26.4,9.6,29.821,23.283L354.862,376H472v-10.017
		C472,362.125,470.605,358.396,468.074,355.485z"/>
	<path style="fill:#EBE5DD;" d="M354.862,376h-2.863H354.862l-13.042-40.717C338.4,321.6,326.105,312,312,312
		s-26.4,9.6-29.821,23.283L264,392.04V424h96v-31.96L354.862,376z"/>
</g>
<g>
	<path style="fill:#D4C8B8;" d="M360,392v32h-96v-24h72v-32l-5.12-16l-12.64-39.36c11.36,2.32,20.72,11.04,23.6,22.64L354.88,376
		L360,392z"/>
	<path style="fill:#D4C8B8;" d="M216,392v32h-96v-24h72v-32l-5.12-16l-12.64-39.36c11.36,2.32,20.72,11.04,23.6,22.64L210.88,376
		L216,392z"/>
</g>
<path style="fill:#5AAAE7;" d="M360,392.04V424h96c8.836,0,16-7.164,16-16v-32H354.862L360,392.04z"/>
<path style="fill:#F40E34;" d="M216,424v-31.96l14.784-96.133c0.7-4.549,4.614-7.907,9.216-7.907h0c4.602,0,8.516,3.358,9.216,7.907
	L264,392.04V424H216z"/>
<path style="fill:#A6001E;" d="M264,392.04l-14.784-96.133C248.517,291.358,244.603,288,240,288v136h24V392.04z"/>
<g>
	<rect x="64" y="328" style="fill:#F40E34;" width="16" height="24"/>
	<rect x="96" y="328" style="fill:#F40E34;" width="16" height="24"/>
	<rect x="368" y="328" style="fill:#F40E34;" width="16" height="24"/>
	<rect x="400" y="328" style="fill:#F40E34;" width="16" height="24"/>
</g>
<g>
	<rect x="368" y="96" style="fill:#5AAAE7;" width="16" height="16"/>
	<rect x="368" y="128" style="fill:#5AAAE7;" width="16" height="16"/>
	<rect x="384" y="112" style="fill:#5AAAE7;" width="16" height="16"/>
	<rect x="352" y="112" style="fill:#5AAAE7;" width="16" height="16"/>
	<rect x="24" y="8" style="fill:#5AAAE7;" width="16" height="16"/>
	<rect x="24" y="40" style="fill:#5AAAE7;" width="16" height="16"/>
	<rect x="40" y="24" style="fill:#5AAAE7;" width="16" height="16"/>
	<rect x="8" y="24" style="fill:#5AAAE7;" width="16" height="16"/>
</g>
<g>
	<path style="fill:#FFD422;" d="M80.023,216c-3.375,0-6.664-0.516-9.813-1.523l4.906-15.234c3.125,1.008,6.695,1.008,9.883-0.039
		l4.953,15.219C86.766,215.461,83.422,215.992,80.023,216z M54.211,202.945c-4.016-5.461-6.164-11.945-6.203-18.75l16-0.094
		c0.023,3.406,1.086,6.641,3.094,9.359L54.211,202.945z M105.914,202.781l-12.953-9.391C94.953,190.648,96,187.398,96,184l16-0.281
		V184C112,190.797,109.898,197.289,105.914,202.781z M66.992,174.688l-13.016-9.313c3.906-5.453,9.539-9.617,15.875-11.734
		l5.078,15.172C71.766,169.875,68.945,171.961,66.992,174.688z M92.859,174.477c-2.047-2.742-4.828-4.727-8.055-5.742l4.797-15.266
		c6.453,2.031,12.016,5.984,16.086,11.445L92.859,174.477z"/>
	<rect x="464" y="200" style="fill:#FFD422;" width="16" height="24"/>
	<rect x="464" y="16" style="fill:#FFD422;" width="16" height="24"/>
</g>
<g>
	<path style="fill:#1E81CE;" d="M8,408c0,8.836,7.164,16,16,16h96v-24H8V408z"/>
	<path style="fill:#1E81CE;" d="M360,400v24h96c8.836,0,16-7.164,16-16v-8H360z"/>
	<path style="fill:#1E81CE;" d="M240,96v24v8c32,0,40,24,40,24v-32C280,120,272,96,240,96z"/>
</g>
<g>
	<path style="fill:#FFFFFF;" d="M56,400H40v-40c0-1.977,0.734-3.883,2.055-5.352l72-80l11.891,10.703L56,363.07V400z"/>
	
		<rect x="132.719" y="247.996" transform="matrix(-0.7071 0.7071 -0.7071 -0.7071 426.8939 335.1674)" style="fill:#FFFFFF;" width="22.624" height="16"/>
	<rect x="144" y="400" style="fill:#FFFFFF;" width="16" height="24"/>
	<rect x="144" y="336" style="fill:#FFFFFF;" width="16" height="48"/>
	<rect x="288" y="400" style="fill:#FFFFFF;" width="16" height="24"/>
	<rect x="288" y="336" style="fill:#FFFFFF;" width="16" height="48"/>
	
		<rect x="219.055" y="32.003" transform="matrix(-0.4472 0.8944 -0.8944 -0.4472 365.7425 -146.0367)" style="fill:#FFFFFF;" width="17.888" height="16"/>
	<path style="fill:#FFFFFF;" d="M200,192h-16v-54.633c0-18.047,4.906-35.758,14.188-51.234l10.953-18.25l13.719,8.234l-10.953,18.25
		c-7.789,12.984-11.906,27.852-11.906,43V192z"/>
	<rect x="256" y="160" style="fill:#FFFFFF;" width="16" height="16"/>
	<rect x="256" y="192" style="fill:#FFFFFF;" width="16" height="56"/>
	<rect x="384" y="392" style="fill:#FFFFFF;" width="16" height="16"/>
	<rect x="416" y="392" style="fill:#FFFFFF;" width="56" height="16"/>
</g>
<path d="M474.109,350.234L320,173.008v-31.234c0-25.953-6.133-51.938-17.734-75.133l-20.375-40.75C273.906,9.922,257.852,0,240,0
	s-33.906,9.922-41.891,25.891l-20.375,40.75C166.133,89.836,160,115.82,160,141.773v31.234L5.898,350.227
	C2.094,354.594,0,360.188,0,365.984V408c0,13.234,10.766,24,24,24h96h17.052l-7.708,11.563C128.469,444.875,128,446.422,128,448v24
	c0,4.422,3.578,8,8,8h64c4.422,0,8-3.578,8-8v-24c0-1.578-0.469-3.125-1.344-4.438L198.948,432H216h48h17.052l-7.708,11.563
	C272.469,444.875,272,446.422,272,448v24c0,4.422,3.578,8,8,8h64c4.422,0,8-3.578,8-8v-24c0-1.578-0.469-3.125-1.344-4.438
	L342.948,432H360h96c13.234,0,24-10.766,24-24v-42.016C480,360.188,477.906,354.594,474.109,350.234z M462.039,360.742
	c1.266,1.445,1.961,3.313,1.961,5.242V368H360.69l-11.112-34.656c-3.656-14.625-15.289-25.516-29.578-28.516V280v-82.605
	L462.039,360.742z M266.745,357.251l-9.62-62.564C255.813,286.172,248.609,280,240,280s-15.813,6.172-17.125,14.688l-9.624,62.587
	l-7.673-23.931c-3.656-14.625-15.289-25.516-29.578-28.516v-21.516l29.656-29.656c1.5-1.5,2.344-3.531,2.344-5.656v-94.459
	c1.739-3.817,9.55-17.541,32-17.541c22.346,0,30.224,13.696,32,17.548V248c0,2.125,0.844,4.156,2.344,5.656L304,283.313v21.516
	c-14.281,2.984-25.898,13.813-29.438,28.016L266.745,357.251z M240,120h8v-15.333c16.266,2.76,22.458,13.532,24,16.888v7.945
	C264.739,124.242,254.444,120,240,120s-24.739,4.242-32,9.5v-7.96c1.529-3.344,7.682-14.124,24-16.877V120H240z M212.422,33.047
	C217.68,22.531,228.242,16,240,16s22.32,6.531,27.578,17.047L275.055,48h-70.109L212.422,33.047z M176,141.773
	c0-23.484,5.547-46.992,16.047-67.977L196.945,64h86.109l4.898,9.797C298.453,94.781,304,118.289,304,141.773V176v84.688l-16-16V120
	c0-0.859-0.141-1.711-0.414-2.531c-0.368-1.112-8.857-25.278-39.586-28.956V88h-16v0.513c-30.729,3.678-39.218,27.844-39.586,28.956
	c-0.273,0.82-0.414,1.672-0.414,2.531v124.688l-16,16V176V141.773z M17.969,360.734L160,197.395V280v24.828
	c-14.281,2.984-25.898,13.813-29.438,28.016L119.302,368H16v-2.016C16,364.055,16.695,362.188,17.969,360.734z M16,408v-24h98.177
	l-1.794,5.602c-0.258,0.789-0.383,1.609-0.383,2.438V416H24C19.586,416,16,412.414,16,408z M128,393.289l17.938-56.07
	C148.477,327.086,157.547,320,168,320s19.523,7.086,22.203,17.719L208,393.289V416h-24h-32h-24V393.289z M144,464v-8h48v8H144z
	 M185.052,440h-34.104l5.333-8h23.438L185.052,440z M224,392.648l14.688-95.523c0.203-1.281,2.422-1.281,2.625,0L256,392.648V416
	h-32V392.648z M288,464v-8h48v8H288z M329.052,440h-34.104l5.333-8h23.438L329.052,440z M352,416h-24h-32h-24v-22.711l17.938-56.07
	C292.477,327.086,301.547,320,312,320s19.523,7.086,22.203,17.719L352,393.289V416z M456,416h-88v-23.961
	c0-0.828-0.125-1.648-0.383-2.438L365.821,384H464v24C464,412.414,460.414,416,456,416z"/>
<rect x="64" y="328" width="16" height="24"/>
<rect x="96" y="328" width="16" height="24"/>
<rect x="368" y="328" width="16" height="24"/>
<rect x="400" y="328" width="16" height="24"/>
<rect x="360" y="88" width="16" height="16"/>
<rect x="360" y="120" width="16" height="16"/>
<rect x="376" y="104" width="16" height="16"/>
<rect x="344" y="104" width="16" height="16"/>
<rect x="16" width="16" height="16"/>
<rect x="16" y="32" width="16" height="16"/>
<rect x="32" y="16" width="16" height="16"/>
<rect y="16" width="16" height="16"/>
<path d="M58.992,166.688c1.953-2.727,4.773-4.813,7.938-5.875l-5.078-15.172c-6.336,2.117-11.969,6.281-15.875,11.734
	L58.992,166.688z"/>
<path d="M84.961,185.391l12.953,9.391C101.898,189.289,104,182.797,104,176v-0.281L88,176C88,179.398,86.953,182.648,84.961,185.391
	z"/>
<path d="M40.008,176.195c0.039,6.805,2.188,13.289,6.203,18.75l12.891-9.484c-2.008-2.719-3.07-5.953-3.094-9.359L40.008,176.195z"
	/>
<path d="M72.023,208c3.398-0.008,6.742-0.539,9.93-1.578L77,191.203c-3.188,1.047-6.758,1.047-9.883,0.039l-4.906,15.234
	C65.359,207.484,68.648,208,72.023,208z"/>
<path d="M97.688,156.914c-4.07-5.461-9.633-9.414-16.086-11.445l-4.797,15.266c3.227,1.016,6.008,3,8.055,5.742L97.688,156.914z"/>
<rect x="456" y="192" width="16" height="24"/>
<rect x="456" y="8" width="16" height="24"/>
<g>
</g>
<g>
</g>
<g>
</g>
<g>
</g>
<g>
</g>
<g>
</g>
<g>
</g>
<g>
</g>
<g>
</g>
<g>
</g>
<g>
</g>
<g>
</g>
<g>
</g>
<g>
</g>
<g>
</g>
</svg>
