<svg height="512" viewBox="0 0 64 64" width="512" xmlns="http://www.w3.org/2000/svg"><g id="Blue"><path d="m30 59-5 2h-9v-6l14-4z" fill="#cdeef6"/><path d="m16 61v-2l14-4v4l-5 2z" fill="#7cb8eb"/><path d="m34 59 5 2h9v-6l-14-4z" fill="#cdeef6"/><path d="m48 61v-2l-14-4v4l5 2z" fill="#7cb8eb"/><path d="m27 33-20 2v-8l20-6z" fill="#7cb8eb"/><rect fill="#cdeef6" height="14" rx="2" width="4" x="3" y="24"/><path d="m7 31 20-6v-4l-20 6z" fill="#cdeef6"/><path d="m37 33 20 2v-8l-20-6z" fill="#7cb8eb"/><g fill="#cdeef6"><rect height="14" rx="2" transform="matrix(-1 0 0 -1 118 62)" width="4" x="57" y="24"/><path d="m57 31-20-6v-4l20 6z"/><path d="m40 25c0 14.912-3.582 32-8 32s-8-17.088-8-32 3.582-22 8-22 8 7.088 8 22z"/></g><path d="m36 19s-2-2-4-2-4 2-4 2v-4a4.333 4.333 0 0 1 4-2 4.333 4.333 0 0 1 4 2z" fill="#fff"/><path d="m25.738 10.174a27.9 27.9 0 0 1 6.262-1.174 27.9 27.9 0 0 1 6.262 1.174c-1.462-4.82-3.723-7.174-6.262-7.174s-4.8 2.354-6.262 7.174z" fill="#7cb8eb"/><rect fill="#fff" height="20" rx="2" width="4" x="30" y="23"/><path d="m59 23a2.993 2.993 0 0 0 -2.966 2.666l-15.134-4.541c-.56-12.045-3.792-19.125-8.9-19.125s-8.34 7.08-8.9 19.125l-15.134 4.541a2.992 2.992 0 0 0 -5.966.334v10a3 3 0 0 0 6 0v-.095l15.446-1.541a77.727 77.727 0 0 0 3.1 16.577l-10.824 3.1a1 1 0 0 0 -.722.959v6a1 1 0 0 0 1 1h9a1.012 1.012 0 0 0 .372-.071l5-2a1 1 0 0 0 .628-.929v-1.2a2.542 2.542 0 0 0 2 0v1.2a1 1 0 0 0 .628.929l5 2a1.012 1.012 0 0 0 .372.071h9a1 1 0 0 0 1-1v-6a1 1 0 0 0 -.725-.961l-10.824-3.1a77.727 77.727 0 0 0 3.1-16.577l15.449 1.543v.095a3 3 0 0 0 6 0v-10a3 3 0 0 0 -3-3zm-53 13a1 1 0 0 1 -2 0v-10a1 1 0 0 1 2 0zm2-8.256 15.026-4.51c-.011.584-.026 1.166-.026 1.766v.156l-15 4.5zm0 6.156v-2.156l15.03-4.508c.04 1.661.126 3.385.254 5.134zm24-29.9c1.623 0 3.382 1.391 4.731 4.741a21.573 21.573 0 0 0 -4.731-.741 21.573 21.573 0 0 0 -4.731.741c1.349-3.35 3.108-4.741 4.731-4.741zm-15 51.754 10.248-2.933q.378.918.789 1.7l-11.037 3.153zm12 2.569-4.192 1.677h-7.808v-.245l12-3.429zm18 1.677h-7.808l-4.192-1.677v-2l12 3.429zm0-4.246v1.92l-11.037-3.153q.411-.78.789-1.7zm-15 .246c-3.057 0-7-15.033-7-31a53.236 53.236 0 0 1 1.512-14 24.163 24.163 0 0 1 5.488-1 24.163 24.163 0 0 1 5.488 1 53.236 53.236 0 0 1 1.512 14c0 15.967-3.943 31-7 31zm24-22.1-15.284-1.53c.128-1.749.214-3.473.254-5.134l15.03 4.508zm0-4.24-15-4.5c0-.052 0-.105 0-.156 0-.6-.015-1.182-.026-1.766l15.026 4.506zm4 6.34a1 1 0 0 1 -2 0v-10a1 1 0 0 1 2 0z" fill="#4f83d1"/><path d="m32 12a5.317 5.317 0 0 0 -4.895 2.553 1 1 0 0 0 -.105.447v4a1 1 0 0 0 1.706.708 5.865 5.865 0 0 1 3.294-1.708 5.865 5.865 0 0 1 3.294 1.708 1 1 0 0 0 1.706-.708v-4a1 1 0 0 0 -.1-.447 5.317 5.317 0 0 0 -4.9-2.553zm3 4.968a5.926 5.926 0 0 0 -3-.968 5.926 5.926 0 0 0 -3 .968v-1.678a3.56 3.56 0 0 1 3-1.29 3.563 3.563 0 0 1 3 1.287z" fill="#4f83d1"/><path d="m32 22a3 3 0 0 0 -3 3v16a3 3 0 0 0 6 0v-16a3 3 0 0 0 -3-3zm1 19a1 1 0 0 1 -2 0v-16a1 1 0 0 1 2 0z" fill="#4f83d1"/></g></svg>